<svg xmlns="http://www.w3.org/2000/svg" xmlns:xlink="http://www.w3.org/1999/xlink" width="500" zoomAndPan="magnify" viewBox="0 0 375 225" height="300" preserveAspectRatio="xMidYMid meet" version="1.0"><defs><g/><clipPath id="b02a930821"><path d="M 188.605469 153 L 216.125 153 L 216.125 164.121094 L 188.605469 164.121094 Z M 188.605469 153 " clip-rule="nonzero"/></clipPath><clipPath id="ab3e2eb225"><path d="M 188.605469 143 L 216.125 143 L 216.125 154 L 188.605469 154 Z M 188.605469 143 " clip-rule="nonzero"/></clipPath><clipPath id="341105f826"><path d="M 188.605469 132 L 216.125 132 L 216.125 144 L 188.605469 144 Z M 188.605469 132 " clip-rule="nonzero"/></clipPath><clipPath id="48759f6ce7"><path d="M 188.605469 105.621094 L 216.125 105.621094 L 216.125 123 L 188.605469 123 Z M 188.605469 105.621094 " clip-rule="nonzero"/></clipPath><clipPath id="1b155c074e"><path d="M 188.605469 122 L 216.125 122 L 216.125 133 L 188.605469 133 Z M 188.605469 122 " clip-rule="nonzero"/></clipPath><clipPath id="e1c6e3da37"><path d="M 17.21875 185.859375 L 90.71875 185.859375 L 90.71875 197.859375 L 17.21875 197.859375 Z M 17.21875 185.859375 " clip-rule="nonzero"/></clipPath><clipPath id="5a50827f9e"><path d="M 17.132812 77.605469 L 31.382812 77.605469 L 31.382812 183.355469 L 17.132812 183.355469 Z M 17.132812 77.605469 " clip-rule="nonzero"/></clipPath><clipPath id="b3c6254ad8"><path d="M 266 24 L 312 24 L 312 63 L 266 63 Z M 266 24 " clip-rule="nonzero"/></clipPath><clipPath id="340f284340"><path d="M 73.855469 -69.199219 L 311.667969 24.890625 L 254.828125 168.554688 L 17.015625 74.464844 Z M 73.855469 -69.199219 " clip-rule="nonzero"/></clipPath><clipPath id="a454c09f78"><path d="M 73.855469 -69.199219 L 311.667969 24.890625 L 254.828125 168.554688 L 17.015625 74.464844 Z M 73.855469 -69.199219 " clip-rule="nonzero"/></clipPath><clipPath id="f6f07fbbc7"><path d="M 272.984375 9.585938 L 311.632812 24.878906 L 295.375 65.964844 L 256.726562 50.675781 Z M 272.984375 9.585938 " clip-rule="nonzero"/></clipPath><clipPath id="f07bec03b1"><path d="M 272.984375 9.585938 L 311.570312 24.855469 L 295.3125 65.941406 L 256.726562 50.675781 Z M 272.984375 9.585938 " clip-rule="nonzero"/></clipPath><clipPath id="b7139a0629"><path d="M 18 4 L 288 4 L 288 96 L 18 96 Z M 18 4 " clip-rule="nonzero"/></clipPath><clipPath id="dca0776636"><path d="M 73.855469 -69.199219 L 311.667969 24.890625 L 254.828125 168.554688 L 17.015625 74.464844 Z M 73.855469 -69.199219 " clip-rule="nonzero"/></clipPath><clipPath id="82b695d563"><path d="M 73.855469 -69.199219 L 311.667969 24.890625 L 254.828125 168.554688 L 17.015625 74.464844 Z M 73.855469 -69.199219 " clip-rule="nonzero"/></clipPath><clipPath id="7ff1c440a0"><path d="M 66.480469 -50.316406 L 289.679688 37.996094 L 240.144531 163.195312 L 16.945312 74.882812 Z M 66.480469 -50.316406 " clip-rule="nonzero"/></clipPath><clipPath id="e5b0fdc14d"><path d="M 66.480469 -50.316406 L 289.679688 37.996094 L 240.304688 162.792969 L 17.105469 74.484375 Z M 66.480469 -50.316406 " clip-rule="nonzero"/></clipPath></defs><g fill="#2878eb" fill-opacity="1"><g transform="translate(35.389508, 162.995487)"><g><path d="M 3 -20.875 L 3 -33.1875 L 29.4375 -33.1875 L 29.4375 -20.875 Z M 3 -20.875 "/></g></g></g><g fill="#143c75" fill-opacity="1"><g transform="translate(67.420976, 162.995487)"><g><path d="M 19.15625 -28.109375 L 1.421875 -55.046875 L 18.46875 -55.046875 L 29.140625 -37.515625 L 39.921875 -55.046875 L 56.96875 -55.046875 L 39.046875 -28.109375 L 57.796875 0 L 40.71875 0 L 29.140625 -18.859375 L 17.53125 0 L 0.5 0 Z M 19.15625 -28.109375 "/></g></g></g><g fill="#143c75" fill-opacity="1"><g transform="translate(125.311008, 162.995487)"><g><path d="M 30.234375 0.984375 C 13.097656 0.984375 4.53125 -8.414062 4.53125 -27.21875 C 4.53125 -36.570312 6.859375 -43.71875 11.515625 -48.65625 C 16.179688 -53.601562 22.863281 -56.078125 31.5625 -56.078125 C 37.925781 -56.078125 43.632812 -54.828125 48.6875 -52.328125 L 44.265625 -40.71875 C 41.898438 -41.664062 39.695312 -42.441406 37.65625 -43.046875 C 35.625 -43.660156 33.59375 -43.96875 31.5625 -43.96875 C 23.75 -43.96875 19.84375 -38.421875 19.84375 -27.328125 C 19.84375 -16.554688 23.75 -11.171875 31.5625 -11.171875 C 34.445312 -11.171875 37.117188 -11.554688 39.578125 -12.328125 C 42.046875 -13.097656 44.507812 -14.304688 46.96875 -15.953125 L 46.96875 -3.109375 C 44.539062 -1.554688 42.085938 -0.488281 39.609375 0.09375 C 37.128906 0.6875 34.003906 0.984375 30.234375 0.984375 Z M 30.234375 0.984375 "/></g></g></g><g fill="#143c75" fill-opacity="1"><g transform="translate(176.749636, 162.995487)"><g/></g></g><g fill="#143c75" fill-opacity="1"><g transform="translate(202.538917, 162.995487)"><g/></g></g><g fill="#143c75" fill-opacity="1"><g transform="translate(228.327661, 162.995487)"><g><path d="M 46.28125 -16.34375 C 46.28125 -10.695312 44.316406 -6.394531 40.390625 -3.4375 C 36.472656 -0.488281 30.609375 0.984375 22.796875 0.984375 C 18.785156 0.984375 15.367188 0.710938 12.546875 0.171875 C 9.722656 -0.367188 7.082031 -1.164062 4.625 -2.21875 L 4.625 -14.625 C 7.414062 -13.3125 10.554688 -12.210938 14.046875 -11.328125 C 17.546875 -10.441406 20.625 -10 23.28125 -10 C 28.726562 -10 31.453125 -11.570312 31.453125 -14.71875 C 31.453125 -15.90625 31.09375 -16.863281 30.375 -17.59375 C 29.65625 -18.332031 28.40625 -19.171875 26.625 -20.109375 C 24.851562 -21.046875 22.492188 -22.140625 19.546875 -23.390625 C 15.304688 -25.160156 12.191406 -26.800781 10.203125 -28.3125 C 8.222656 -29.820312 6.78125 -31.550781 5.875 -33.5 C 4.976562 -35.457031 4.53125 -37.863281 4.53125 -40.71875 C 4.53125 -45.601562 6.425781 -49.382812 10.21875 -52.0625 C 14.007812 -54.738281 19.382812 -56.078125 26.34375 -56.078125 C 32.96875 -56.078125 39.414062 -54.632812 45.6875 -51.75 L 41.15625 -40.90625 C 38.394531 -42.09375 35.816406 -43.0625 33.421875 -43.8125 C 31.023438 -44.570312 28.582031 -44.953125 26.09375 -44.953125 C 21.664062 -44.953125 19.453125 -43.753906 19.453125 -41.359375 C 19.453125 -40.015625 20.164062 -38.847656 21.59375 -37.859375 C 23.019531 -36.867188 26.144531 -35.410156 30.96875 -33.484375 C 35.269531 -31.742188 38.421875 -30.117188 40.421875 -28.609375 C 42.421875 -27.097656 43.894531 -25.359375 44.84375 -23.390625 C 45.800781 -21.421875 46.28125 -19.070312 46.28125 -16.34375 Z M 46.28125 -16.34375 "/></g></g></g><g fill="#143c75" fill-opacity="1"><g transform="translate(278.044802, 162.995487)"><g><path d="M 30.671875 -45.390625 C 27.484375 -45.390625 24.988281 -44.378906 23.1875 -42.359375 C 21.382812 -40.347656 20.351562 -37.488281 20.09375 -33.78125 L 41.15625 -33.78125 C 41.09375 -37.488281 40.125 -40.347656 38.25 -42.359375 C 36.382812 -44.378906 33.859375 -45.390625 30.671875 -45.390625 Z M 32.78125 0.984375 C 23.925781 0.984375 17.003906 -1.457031 12.015625 -6.34375 C 7.023438 -11.238281 4.53125 -18.164062 4.53125 -27.125 C 4.53125 -36.351562 6.832031 -43.484375 11.4375 -48.515625 C 16.050781 -53.554688 22.429688 -56.078125 30.578125 -56.078125 C 38.347656 -56.078125 44.398438 -53.859375 48.734375 -49.421875 C 53.066406 -44.992188 55.234375 -38.875 55.234375 -31.0625 L 55.234375 -23.78125 L 19.75 -23.78125 C 19.90625 -19.507812 21.164062 -16.175781 23.53125 -13.78125 C 25.894531 -11.382812 29.210938 -10.1875 33.484375 -10.1875 C 36.796875 -10.1875 39.925781 -10.53125 42.875 -11.21875 C 45.832031 -11.914062 48.921875 -13.019531 52.140625 -14.53125 L 52.140625 -2.90625 C 49.515625 -1.59375 46.707031 -0.617188 43.71875 0.015625 C 40.726562 0.660156 37.082031 0.984375 32.78125 0.984375 Z M 32.78125 0.984375 "/></g></g></g><g clip-path="url(#b02a930821)"><path fill="#2878eb" d="M 202.542969 157.855469 C 208.171875 157.855469 212.941406 156.269531 216.125 153.652344 C 216.125 154.328125 216.125 155.027344 216.125 155.765625 C 216.125 160.527344 210.285156 164.121094 202.542969 164.121094 C 194.800781 164.121094 188.960938 160.527344 188.960938 155.765625 C 188.960938 155.070312 188.960938 154.359375 188.960938 153.652344 C 192.140625 156.269531 196.914062 157.855469 202.542969 157.855469 Z M 202.542969 157.855469 " fill-opacity="1" fill-rule="nonzero"/></g><g clip-path="url(#ab3e2eb225)"><path fill="#2878eb" d="M 202.542969 147.410156 C 208.171875 147.410156 212.941406 145.824219 216.125 143.207031 C 216.125 143.882812 216.125 144.578125 216.125 145.320312 C 216.125 150.082031 210.285156 153.675781 202.542969 153.675781 C 194.800781 153.675781 188.960938 150.082031 188.960938 145.320312 C 188.960938 144.625 188.960938 143.910156 188.960938 143.207031 C 192.140625 145.824219 196.914062 147.410156 202.542969 147.410156 Z M 202.542969 147.410156 " fill-opacity="1" fill-rule="nonzero"/></g><g clip-path="url(#341105f826)"><path fill="#2878eb" d="M 202.542969 136.960938 C 208.171875 136.960938 212.941406 135.375 216.125 132.761719 C 216.125 133.433594 216.125 134.132812 216.125 134.871094 C 216.125 139.636719 210.285156 143.230469 202.542969 143.230469 C 194.800781 143.230469 188.960938 139.636719 188.960938 134.871094 C 188.960938 134.175781 188.960938 133.464844 188.960938 132.761719 C 192.140625 135.375 196.914062 136.960938 202.542969 136.960938 Z M 202.542969 136.960938 " fill-opacity="1" fill-rule="nonzero"/></g><g clip-path="url(#48759f6ce7)"><path fill="#2878eb" d="M 188.960938 113.980469 C 188.960938 109.214844 194.800781 105.621094 202.542969 105.621094 C 210.285156 105.621094 216.125 109.214844 216.125 113.980469 C 216.125 118.742188 210.285156 122.335938 202.542969 122.335938 C 194.800781 122.335938 188.960938 118.742188 188.960938 113.980469 Z M 188.960938 113.980469 " fill-opacity="1" fill-rule="nonzero"/></g><g clip-path="url(#1b155c074e)"><path fill="#2878eb" d="M 202.542969 126.515625 C 208.171875 126.515625 212.941406 124.929688 216.125 122.3125 C 216.125 122.988281 216.125 123.6875 216.125 124.425781 C 216.125 129.191406 210.285156 132.785156 202.542969 132.785156 C 194.800781 132.785156 188.960938 129.191406 188.960938 124.425781 C 188.960938 123.730469 188.960938 123.019531 188.960938 122.3125 C 192.140625 124.929688 196.914062 126.515625 202.542969 126.515625 Z M 202.542969 126.515625 " fill-opacity="1" fill-rule="nonzero"/></g><g clip-path="url(#e1c6e3da37)"><path fill="#2878eb" d="M 90.71875 185.859375 L 90.71875 197.859375 L 17.21875 197.859375 L 17.21875 185.859375 L 90.71875 185.859375 " fill-opacity="1" fill-rule="nonzero"/></g><g clip-path="url(#5a50827f9e)"><path fill="#2878eb" d="M 31.382812 183.351562 L 17.132812 183.351562 L 17.132812 77.609375 L 31.382812 77.609375 L 31.382812 183.351562 " fill-opacity="1" fill-rule="nonzero"/></g><g fill="#143c75" fill-opacity="1"><g transform="translate(94.818748, 196.677471)"><g><path d="M 5.5625 0.175781 C 8.449219 0.175781 10.398438 -2.015625 10.34375 -5.105469 L 5.238281 -5.105469 L 5.238281 -3.976562 L 9.070312 -3.976562 C 8.828125 -2.203125 7.484375 -1.007812 5.589844 -1.007812 C 3.480469 -1.007812 1.988281 -2.527344 1.988281 -4.703125 C 1.988281 -6.878906 3.464844 -8.398438 5.574219 -8.398438 C 7.027344 -8.398438 8.183594 -7.683594 8.773438 -6.476562 L 10.0625 -6.476562 C 9.457031 -8.328125 7.683594 -9.578125 5.535156 -9.578125 C 2.78125 -9.578125 0.777344 -7.523438 0.777344 -4.703125 C 0.777344 -1.867188 2.792969 0.175781 5.5625 0.175781 Z M 5.5625 0.175781 "/></g></g></g><g fill="#143c75" fill-opacity="1"><g transform="translate(106.931043, 196.677471)"><g><path d="M 5.644531 0.175781 C 8.503906 0.175781 10.519531 -1.839844 10.519531 -4.703125 C 10.519531 -7.5625 8.503906 -9.578125 5.644531 -9.578125 C 2.78125 -9.578125 0.777344 -7.5625 0.777344 -4.703125 C 0.777344 -1.839844 2.78125 0.175781 5.644531 0.175781 Z M 1.988281 -4.703125 C 1.988281 -6.890625 3.480469 -8.398438 5.644531 -8.398438 C 7.804688 -8.398438 9.296875 -6.890625 9.296875 -4.703125 C 9.296875 -2.511719 7.804688 -1.007812 5.644531 -1.007812 C 3.480469 -1.007812 1.988281 -2.511719 1.988281 -4.703125 Z M 1.988281 -4.703125 "/></g></g></g><g fill="#143c75" fill-opacity="1"><g transform="translate(119.244752, 196.677471)"><g><path d="M 3.976562 0 L 5.078125 0 L 8.8125 -9.40625 L 7.5625 -9.40625 L 5.992188 -5.441406 L 4.527344 -1.707031 L 3.050781 -5.441406 L 1.492188 -9.40625 L 0.226562 -9.40625 Z M 3.976562 0 "/></g></g></g><g fill="#143c75" fill-opacity="1"><g transform="translate(129.316066, 196.677471)"><g><path d="M 1.371094 0 L 7.226562 0 L 7.226562 -1.101562 L 2.554688 -1.101562 L 2.554688 -4.246094 L 6.746094 -4.246094 L 6.746094 -5.332031 L 2.554688 -5.332031 L 2.554688 -8.304688 L 7.082031 -8.304688 L 7.082031 -9.40625 L 1.371094 -9.40625 Z M 1.371094 0 "/></g></g></g><g fill="#143c75" fill-opacity="1"><g transform="translate(138.447448, 196.677471)"><g><path d="M 1.371094 0 L 2.554688 0 L 2.554688 -3.371094 L 4.621094 -3.371094 L 6.917969 0 L 8.34375 0 L 5.980469 -3.492188 C 7.347656 -3.828125 8.195312 -4.863281 8.195312 -6.382812 C 8.195312 -8.25 6.90625 -9.40625 4.957031 -9.40625 L 1.371094 -9.40625 Z M 2.554688 -4.5 L 2.554688 -8.277344 L 4.824219 -8.277344 C 6.195312 -8.277344 6.988281 -7.578125 6.988281 -6.382812 C 6.988281 -5.1875 6.195312 -4.5 4.824219 -4.5 Z M 2.554688 -4.5 "/></g></g></g><g fill="#143c75" fill-opacity="1"><g transform="translate(148.626182, 196.677471)"><g><path d="M 1.371094 0 L 2.539062 0 L 2.539062 -7.363281 L 7.738281 0 L 8.839844 0 L 8.839844 -9.40625 L 7.683594 -9.40625 L 7.683594 -2.042969 L 2.484375 -9.40625 L 1.371094 -9.40625 Z M 1.371094 0 "/></g></g></g><g fill="#143c75" fill-opacity="1"><g transform="translate(159.865682, 196.677471)"><g><path d="M 1.371094 0 L 2.554688 0 L 2.554688 -7.203125 L 5.667969 -2.5 L 6.636719 -2.5 L 9.753906 -7.1875 L 9.753906 0 L 10.9375 0 L 10.9375 -9.40625 L 9.835938 -9.40625 L 6.167969 -3.828125 L 2.472656 -9.40625 L 1.371094 -9.40625 Z M 1.371094 0 "/></g></g></g><g fill="#143c75" fill-opacity="1"><g transform="translate(173.199876, 196.677471)"><g><path d="M 1.371094 0 L 7.226562 0 L 7.226562 -1.101562 L 2.554688 -1.101562 L 2.554688 -4.246094 L 6.746094 -4.246094 L 6.746094 -5.332031 L 2.554688 -5.332031 L 2.554688 -8.304688 L 7.082031 -8.304688 L 7.082031 -9.40625 L 1.371094 -9.40625 Z M 1.371094 0 "/></g></g></g><g fill="#143c75" fill-opacity="1"><g transform="translate(182.331263, 196.677471)"><g><path d="M 1.371094 0 L 2.539062 0 L 2.539062 -7.363281 L 7.738281 0 L 8.839844 0 L 8.839844 -9.40625 L 7.683594 -9.40625 L 7.683594 -2.042969 L 2.484375 -9.40625 L 1.371094 -9.40625 Z M 1.371094 0 "/></g></g></g><g fill="#143c75" fill-opacity="1"><g transform="translate(193.570768, 196.677471)"><g><path d="M 3.640625 0 L 4.824219 0 L 4.824219 -8.277344 L 7.996094 -8.277344 L 7.996094 -9.40625 L 0.457031 -9.40625 L 0.457031 -8.277344 L 3.640625 -8.277344 Z M 3.640625 0 "/></g></g></g><g fill="#143c75" fill-opacity="1"><g transform="translate(203.064695, 196.677471)"><g/></g></g><g fill="#143c75" fill-opacity="1"><g transform="translate(207.429315, 196.677471)"><g><path d="M 1.371094 0 L 7.226562 0 L 7.226562 -1.101562 L 2.554688 -1.101562 L 2.554688 -4.246094 L 6.746094 -4.246094 L 6.746094 -5.332031 L 2.554688 -5.332031 L 2.554688 -8.304688 L 7.082031 -8.304688 L 7.082031 -9.40625 L 1.371094 -9.40625 Z M 1.371094 0 "/></g></g></g><g fill="#143c75" fill-opacity="1"><g transform="translate(216.560702, 196.677471)"><g><path d="M 1.371094 0 L 2.554688 0 L 2.554688 -7.203125 L 5.667969 -2.5 L 6.636719 -2.5 L 9.753906 -7.1875 L 9.753906 0 L 10.9375 0 L 10.9375 -9.40625 L 9.835938 -9.40625 L 6.167969 -3.828125 L 2.472656 -9.40625 L 1.371094 -9.40625 Z M 1.371094 0 "/></g></g></g><g fill="#143c75" fill-opacity="1"><g transform="translate(229.894902, 196.677471)"><g><path d="M 1.371094 0 L 2.554688 0 L 2.554688 -3.089844 L 4.554688 -3.089844 C 6.675781 -3.089844 8.046875 -4.3125 8.046875 -6.246094 C 8.046875 -8.167969 6.675781 -9.40625 4.554688 -9.40625 L 1.371094 -9.40625 Z M 2.554688 -4.191406 L 2.554688 -8.277344 L 4.527344 -8.277344 C 6.046875 -8.277344 6.839844 -7.578125 6.839844 -6.234375 C 6.839844 -4.890625 6.046875 -4.191406 4.527344 -4.191406 Z M 2.554688 -4.191406 "/></g></g></g><g fill="#143c75" fill-opacity="1"><g transform="translate(239.509686, 196.677471)"><g><path d="M 1.371094 0 L 7.121094 0 L 7.121094 -1.128906 L 2.554688 -1.128906 L 2.554688 -9.40625 L 1.371094 -9.40625 Z M 1.371094 0 "/></g></g></g><g fill="#143c75" fill-opacity="1"><g transform="translate(248.077118, 196.677471)"><g><path d="M 5.644531 0.175781 C 8.503906 0.175781 10.519531 -1.839844 10.519531 -4.703125 C 10.519531 -7.5625 8.503906 -9.578125 5.644531 -9.578125 C 2.78125 -9.578125 0.777344 -7.5625 0.777344 -4.703125 C 0.777344 -1.839844 2.78125 0.175781 5.644531 0.175781 Z M 1.988281 -4.703125 C 1.988281 -6.890625 3.480469 -8.398438 5.644531 -8.398438 C 7.804688 -8.398438 9.296875 -6.890625 9.296875 -4.703125 C 9.296875 -2.511719 7.804688 -1.007812 5.644531 -1.007812 C 3.480469 -1.007812 1.988281 -2.511719 1.988281 -4.703125 Z M 1.988281 -4.703125 "/></g></g></g><g fill="#143c75" fill-opacity="1"><g transform="translate(260.390832, 196.677471)"><g><path d="M 3.761719 0 L 4.917969 0 L 4.917969 -3.386719 L 8.449219 -9.40625 L 7.121094 -9.40625 L 4.351562 -4.648438 L 3.128906 -6.773438 L 1.597656 -9.40625 L 0.226562 -9.40625 L 3.761719 -3.386719 Z M 3.761719 0 "/></g></g></g><g fill="#143c75" fill-opacity="1"><g transform="translate(270.099607, 196.677471)"><g><path d="M 1.371094 0 L 7.226562 0 L 7.226562 -1.101562 L 2.554688 -1.101562 L 2.554688 -4.246094 L 6.746094 -4.246094 L 6.746094 -5.332031 L 2.554688 -5.332031 L 2.554688 -8.304688 L 7.082031 -8.304688 L 7.082031 -9.40625 L 1.371094 -9.40625 Z M 1.371094 0 "/></g></g></g><g fill="#143c75" fill-opacity="1"><g transform="translate(279.230994, 196.677471)"><g><path d="M 1.371094 0 L 7.226562 0 L 7.226562 -1.101562 L 2.554688 -1.101562 L 2.554688 -4.246094 L 6.746094 -4.246094 L 6.746094 -5.332031 L 2.554688 -5.332031 L 2.554688 -8.304688 L 7.082031 -8.304688 L 7.082031 -9.40625 L 1.371094 -9.40625 Z M 1.371094 0 "/></g></g></g><g fill="#143c75" fill-opacity="1"><g transform="translate(288.362381, 196.677471)"><g><path d="M 4.5 0.175781 C 6.554688 0.175781 7.886719 -0.832031 7.886719 -2.472656 C 7.886719 -3.855469 6.960938 -4.6875 4.554688 -5.28125 C 2.726562 -5.722656 2.121094 -6.207031 2.121094 -6.988281 C 2.121094 -7.886719 2.929688 -8.449219 4.273438 -8.449219 C 5.65625 -8.449219 6.515625 -7.753906 6.542969 -6.625 L 7.710938 -6.625 C 7.699219 -8.449219 6.382812 -9.578125 4.273438 -9.578125 C 2.21875 -9.578125 0.914062 -8.570312 0.914062 -6.988281 C 0.914062 -5.535156 1.949219 -4.730469 4.257812 -4.179688 C 5.953125 -3.777344 6.664062 -3.304688 6.664062 -2.433594 C 6.664062 -1.503906 5.832031 -0.953125 4.5 -0.953125 C 3.035156 -0.953125 2.015625 -1.679688 1.988281 -2.886719 L 0.804688 -2.886719 C 0.820312 -1.046875 2.257812 0.175781 4.5 0.175781 Z M 4.5 0.175781 "/></g></g></g><g fill="#143c75" fill-opacity="1"><g transform="translate(65.381275, 216.348783)"><g><path d="M 5.746094 0.179688 C 8.117188 0.179688 10.042969 -1.253906 10.628906 -3.433594 L 9.332031 -3.433594 C 8.832031 -1.96875 7.449219 -1.046875 5.789062 -1.046875 C 3.613281 -1.046875 2.066406 -2.621094 2.066406 -4.882812 C 2.066406 -7.140625 3.613281 -8.71875 5.789062 -8.71875 C 7.40625 -8.71875 8.734375 -7.855469 9.234375 -6.445312 L 10.546875 -6.445312 C 9.90625 -8.59375 8.050781 -9.945312 5.746094 -9.945312 C 2.875 -9.945312 0.808594 -7.824219 0.808594 -4.882812 C 0.808594 -1.9375 2.875 0.179688 5.746094 0.179688 Z M 5.746094 0.179688 "/></g></g></g><g fill="#143c75" fill-opacity="1"><g transform="translate(76.761167, 216.348783)"><g><path d="M 5.859375 0.179688 C 8.832031 0.179688 10.921875 -1.910156 10.921875 -4.882812 C 10.921875 -7.855469 8.832031 -9.945312 5.859375 -9.945312 C 2.886719 -9.945312 0.808594 -7.855469 0.808594 -4.882812 C 0.808594 -1.910156 2.886719 0.179688 5.859375 0.179688 Z M 2.066406 -4.882812 C 2.066406 -7.15625 3.613281 -8.71875 5.859375 -8.71875 C 8.105469 -8.71875 9.652344 -7.15625 9.652344 -4.882812 C 9.652344 -2.609375 8.105469 -1.046875 5.859375 -1.046875 C 3.613281 -1.046875 2.066406 -2.609375 2.066406 -4.882812 Z M 2.066406 -4.882812 "/></g></g></g><g fill="#143c75" fill-opacity="1"><g transform="translate(88.475761, 216.348783)"><g><path d="M 1.074219 -2.984375 L 5.328125 -2.984375 L 5.328125 -4.085938 L 1.074219 -4.085938 Z M 1.074219 -2.984375 "/></g></g></g><g fill="#143c75" fill-opacity="1"><g transform="translate(94.876951, 216.348783)"><g><path d="M 5.859375 0.179688 C 8.832031 0.179688 10.921875 -1.910156 10.921875 -4.882812 C 10.921875 -7.855469 8.832031 -9.945312 5.859375 -9.945312 C 2.886719 -9.945312 0.808594 -7.855469 0.808594 -4.882812 C 0.808594 -1.910156 2.886719 0.179688 5.859375 0.179688 Z M 2.066406 -4.882812 C 2.066406 -7.15625 3.613281 -8.71875 5.859375 -8.71875 C 8.105469 -8.71875 9.652344 -7.15625 9.652344 -4.882812 C 9.652344 -2.609375 8.105469 -1.046875 5.859375 -1.046875 C 3.613281 -1.046875 2.066406 -2.609375 2.066406 -4.882812 Z M 2.066406 -4.882812 "/></g></g></g><g fill="#143c75" fill-opacity="1"><g transform="translate(106.591545, 216.348783)"><g><path d="M 1.421875 0 L 2.652344 0 L 2.652344 -3.207031 L 4.730469 -3.207031 C 6.933594 -3.207031 8.355469 -4.476562 8.355469 -6.488281 C 8.355469 -8.480469 6.933594 -9.765625 4.730469 -9.765625 L 1.421875 -9.765625 Z M 2.652344 -4.351562 L 2.652344 -8.59375 L 4.703125 -8.59375 C 6.277344 -8.59375 7.101562 -7.867188 7.101562 -6.472656 C 7.101562 -5.078125 6.277344 -4.351562 4.703125 -4.351562 Z M 2.652344 -4.351562 "/></g></g></g><g fill="#143c75" fill-opacity="1"><g transform="translate(115.503001, 216.348783)"><g><path d="M 1.421875 0 L 7.503906 0 L 7.503906 -1.144531 L 2.652344 -1.144531 L 2.652344 -4.410156 L 7.003906 -4.410156 L 7.003906 -5.539062 L 2.652344 -5.539062 L 2.652344 -8.621094 L 7.351562 -8.621094 L 7.351562 -9.765625 L 1.421875 -9.765625 Z M 1.421875 0 "/></g></g></g><g fill="#143c75" fill-opacity="1"><g transform="translate(123.912407, 216.348783)"><g><path d="M 1.421875 0 L 2.652344 0 L 2.652344 -3.5 L 4.800781 -3.5 L 7.183594 0 L 8.664062 0 L 6.207031 -3.628906 C 7.628906 -3.976562 8.507812 -5.050781 8.507812 -6.625 C 8.507812 -8.566406 7.171875 -9.765625 5.148438 -9.765625 L 1.421875 -9.765625 Z M 2.652344 -4.671875 L 2.652344 -8.59375 L 5.007812 -8.59375 C 6.429688 -8.59375 7.253906 -7.867188 7.253906 -6.625 C 7.253906 -5.386719 6.429688 -4.671875 5.007812 -4.671875 Z M 2.652344 -4.671875 "/></g></g></g><g fill="#143c75" fill-opacity="1"><g transform="translate(133.4096, 216.348783)"><g><path d="M 0.238281 0 L 1.546875 0 L 2.441406 -2.21875 L 7.199219 -2.21875 L 8.117188 0 L 9.417969 0 L 5.398438 -9.765625 L 4.253906 -9.765625 Z M 2.914062 -3.363281 L 4.828125 -8.050781 L 6.738281 -3.363281 Z M 2.914062 -3.363281 "/></g></g></g><g fill="#143c75" fill-opacity="1"><g transform="translate(143.0602, 216.348783)"><g><path d="M 3.78125 0 L 5.007812 0 L 5.007812 -8.59375 L 8.300781 -8.59375 L 8.300781 -9.765625 L 0.472656 -9.765625 L 0.472656 -8.59375 L 3.78125 -8.59375 Z M 3.78125 0 "/></g></g></g><g fill="#143c75" fill-opacity="1"><g transform="translate(151.846148, 216.348783)"><g><path d="M 1.421875 0 L 2.652344 0 L 2.652344 -9.765625 L 1.421875 -9.765625 Z M 1.421875 0 "/></g></g></g><g fill="#143c75" fill-opacity="1"><g transform="translate(155.918369, 216.348783)"><g><path d="M 4.128906 0 L 5.273438 0 L 9.152344 -9.765625 L 7.855469 -9.765625 L 6.222656 -5.648438 L 4.703125 -1.773438 L 3.167969 -5.648438 L 1.546875 -9.765625 L 0.238281 -9.765625 Z M 4.128906 0 "/></g></g></g><g fill="#143c75" fill-opacity="1"><g transform="translate(165.303994, 216.348783)"><g><path d="M 1.421875 0 L 7.503906 0 L 7.503906 -1.144531 L 2.652344 -1.144531 L 2.652344 -4.410156 L 7.003906 -4.410156 L 7.003906 -5.539062 L 2.652344 -5.539062 L 2.652344 -8.621094 L 7.351562 -8.621094 L 7.351562 -9.765625 L 1.421875 -9.765625 Z M 1.421875 0 "/></g></g></g><g fill="#143c75" fill-opacity="1"><g transform="translate(173.713401, 216.348783)"><g/></g></g><g fill="#143c75" fill-opacity="1"><g transform="translate(177.171995, 216.348783)"><g><path d="M 5.746094 0.179688 C 8.117188 0.179688 10.042969 -1.253906 10.628906 -3.433594 L 9.332031 -3.433594 C 8.832031 -1.96875 7.449219 -1.046875 5.789062 -1.046875 C 3.613281 -1.046875 2.066406 -2.621094 2.066406 -4.882812 C 2.066406 -7.140625 3.613281 -8.71875 5.789062 -8.71875 C 7.40625 -8.71875 8.734375 -7.855469 9.234375 -6.445312 L 10.546875 -6.445312 C 9.90625 -8.59375 8.050781 -9.945312 5.746094 -9.945312 C 2.875 -9.945312 0.808594 -7.824219 0.808594 -4.882812 C 0.808594 -1.9375 2.875 0.179688 5.746094 0.179688 Z M 5.746094 0.179688 "/></g></g></g><g fill="#143c75" fill-opacity="1"><g transform="translate(188.551887, 216.348783)"><g><path d="M 1.421875 0 L 2.652344 0 L 2.652344 -3.5 L 4.800781 -3.5 L 7.183594 0 L 8.664062 0 L 6.207031 -3.628906 C 7.628906 -3.976562 8.507812 -5.050781 8.507812 -6.625 C 8.507812 -8.566406 7.171875 -9.765625 5.148438 -9.765625 L 1.421875 -9.765625 Z M 2.652344 -4.671875 L 2.652344 -8.59375 L 5.007812 -8.59375 C 6.429688 -8.59375 7.253906 -7.867188 7.253906 -6.625 C 7.253906 -5.386719 6.429688 -4.671875 5.007812 -4.671875 Z M 2.652344 -4.671875 "/></g></g></g><g fill="#143c75" fill-opacity="1"><g transform="translate(198.04908, 216.348783)"><g><path d="M 1.421875 0 L 7.503906 0 L 7.503906 -1.144531 L 2.652344 -1.144531 L 2.652344 -4.410156 L 7.003906 -4.410156 L 7.003906 -5.539062 L 2.652344 -5.539062 L 2.652344 -8.621094 L 7.351562 -8.621094 L 7.351562 -9.765625 L 1.421875 -9.765625 Z M 1.421875 0 "/></g></g></g><g fill="#143c75" fill-opacity="1"><g transform="translate(206.458486, 216.348783)"><g><path d="M 1.421875 0 L 4.800781 0 C 7.796875 0 9.808594 -1.996094 9.808594 -4.882812 C 9.808594 -7.769531 7.796875 -9.765625 4.800781 -9.765625 L 1.421875 -9.765625 Z M 2.652344 -1.171875 L 2.652344 -8.59375 L 4.742188 -8.59375 C 7.015625 -8.59375 8.550781 -7.101562 8.550781 -4.882812 C 8.550781 -2.664062 7.03125 -1.171875 4.800781 -1.171875 Z M 2.652344 -1.171875 "/></g></g></g><g fill="#143c75" fill-opacity="1"><g transform="translate(217.071355, 216.348783)"><g><path d="M 1.421875 0 L 2.652344 0 L 2.652344 -9.765625 L 1.421875 -9.765625 Z M 1.421875 0 "/></g></g></g><g fill="#143c75" fill-opacity="1"><g transform="translate(221.143576, 216.348783)"><g><path d="M 3.78125 0 L 5.007812 0 L 5.007812 -8.59375 L 8.300781 -8.59375 L 8.300781 -9.765625 L 0.472656 -9.765625 L 0.472656 -8.59375 L 3.78125 -8.59375 Z M 3.78125 0 "/></g></g></g><g fill="#143c75" fill-opacity="1"><g transform="translate(229.929524, 216.348783)"><g/></g></g><g fill="#143c75" fill-opacity="1"><g transform="translate(233.388119, 216.348783)"><g><path d="M 4.671875 0.179688 C 6.808594 0.179688 8.1875 -0.863281 8.1875 -2.566406 C 8.1875 -4.003906 7.226562 -4.867188 4.730469 -5.484375 C 2.832031 -5.941406 2.203125 -6.445312 2.203125 -7.253906 C 2.203125 -8.1875 3.042969 -8.773438 4.4375 -8.773438 C 5.875 -8.773438 6.765625 -8.050781 6.792969 -6.878906 L 8.007812 -6.878906 C 7.992188 -8.773438 6.625 -9.945312 4.4375 -9.945312 C 2.300781 -9.945312 0.949219 -8.898438 0.949219 -7.253906 C 0.949219 -5.746094 2.023438 -4.910156 4.421875 -4.339844 C 6.179688 -3.921875 6.917969 -3.433594 6.917969 -2.523438 C 6.917969 -1.5625 6.054688 -0.992188 4.671875 -0.992188 C 3.152344 -0.992188 2.09375 -1.742188 2.066406 -3 L 0.835938 -3 C 0.851562 -1.089844 2.34375 0.179688 4.671875 0.179688 Z M 4.671875 0.179688 "/></g></g></g><g fill="#143c75" fill-opacity="1"><g transform="translate(242.411152, 216.348783)"><g><path d="M 5.859375 0.179688 C 8.832031 0.179688 10.921875 -1.910156 10.921875 -4.882812 C 10.921875 -7.855469 8.832031 -9.945312 5.859375 -9.945312 C 2.886719 -9.945312 0.808594 -7.855469 0.808594 -4.882812 C 0.808594 -1.910156 2.886719 0.179688 5.859375 0.179688 Z M 2.066406 -4.882812 C 2.066406 -7.15625 3.613281 -8.71875 5.859375 -8.71875 C 8.105469 -8.71875 9.652344 -7.15625 9.652344 -4.882812 C 9.652344 -2.609375 8.105469 -1.046875 5.859375 -1.046875 C 3.613281 -1.046875 2.066406 -2.609375 2.066406 -4.882812 Z M 2.066406 -4.882812 "/></g></g></g><g fill="#143c75" fill-opacity="1"><g transform="translate(254.125736, 216.348783)"><g><path d="M 5.746094 0.179688 C 8.117188 0.179688 10.042969 -1.253906 10.628906 -3.433594 L 9.332031 -3.433594 C 8.832031 -1.96875 7.449219 -1.046875 5.789062 -1.046875 C 3.613281 -1.046875 2.066406 -2.621094 2.066406 -4.882812 C 2.066406 -7.140625 3.613281 -8.71875 5.789062 -8.71875 C 7.40625 -8.71875 8.734375 -7.855469 9.234375 -6.445312 L 10.546875 -6.445312 C 9.90625 -8.59375 8.050781 -9.945312 5.746094 -9.945312 C 2.875 -9.945312 0.808594 -7.824219 0.808594 -4.882812 C 0.808594 -1.9375 2.875 0.179688 5.746094 0.179688 Z M 5.746094 0.179688 "/></g></g></g><g fill="#143c75" fill-opacity="1"><g transform="translate(265.505628, 216.348783)"><g><path d="M 1.421875 0 L 2.652344 0 L 2.652344 -9.765625 L 1.421875 -9.765625 Z M 1.421875 0 "/></g></g></g><g fill="#143c75" fill-opacity="1"><g transform="translate(269.577839, 216.348783)"><g><path d="M 1.421875 0 L 7.503906 0 L 7.503906 -1.144531 L 2.652344 -1.144531 L 2.652344 -4.410156 L 7.003906 -4.410156 L 7.003906 -5.539062 L 2.652344 -5.539062 L 2.652344 -8.621094 L 7.351562 -8.621094 L 7.351562 -9.765625 L 1.421875 -9.765625 Z M 1.421875 0 "/></g></g></g><g fill="#143c75" fill-opacity="1"><g transform="translate(277.987245, 216.348783)"><g><path d="M 3.78125 0 L 5.007812 0 L 5.007812 -8.59375 L 8.300781 -8.59375 L 8.300781 -9.765625 L 0.472656 -9.765625 L 0.472656 -8.59375 L 3.78125 -8.59375 Z M 3.78125 0 "/></g></g></g><g fill="#143c75" fill-opacity="1"><g transform="translate(286.773193, 216.348783)"><g><path d="M 3.90625 0 L 5.105469 0 L 5.105469 -3.515625 L 8.773438 -9.765625 L 7.394531 -9.765625 L 4.519531 -4.828125 L 3.25 -7.03125 L 1.660156 -9.765625 L 0.238281 -9.765625 L 3.90625 -3.515625 Z M 3.90625 0 "/></g></g></g><g fill="#143c75" fill-opacity="1"><g transform="translate(295.782277, 216.348783)"><g/></g></g><g fill="#143c75" fill-opacity="1"><g transform="translate(299.240861, 216.348783)"><g><path d="M 1.421875 0 L 7.394531 0 L 7.394531 -1.171875 L 2.652344 -1.171875 L 2.652344 -9.765625 L 1.421875 -9.765625 Z M 1.421875 0 "/></g></g></g><g fill="#143c75" fill-opacity="1"><g transform="translate(307.06454, 216.348783)"><g><path d="M 3.78125 0 L 5.007812 0 L 5.007812 -8.59375 L 8.300781 -8.59375 L 8.300781 -9.765625 L 0.472656 -9.765625 L 0.472656 -8.59375 L 3.78125 -8.59375 Z M 3.78125 0 "/></g></g></g><g fill="#143c75" fill-opacity="1"><g transform="translate(315.850489, 216.348783)"><g><path d="M 1.421875 0 L 4.800781 0 C 7.796875 0 9.808594 -1.996094 9.808594 -4.882812 C 9.808594 -7.769531 7.796875 -9.765625 4.800781 -9.765625 L 1.421875 -9.765625 Z M 2.652344 -1.171875 L 2.652344 -8.59375 L 4.742188 -8.59375 C 7.015625 -8.59375 8.550781 -7.101562 8.550781 -4.882812 C 8.550781 -2.664062 7.03125 -1.171875 4.800781 -1.171875 Z M 2.652344 -1.171875 "/></g></g></g><g fill="#143c75" fill-opacity="1"><g transform="translate(326.463347, 216.348783)"><g><path d="M 1.785156 0.113281 C 2.359375 0.113281 2.734375 -0.277344 2.734375 -0.808594 C 2.734375 -1.339844 2.359375 -1.714844 1.785156 -1.714844 C 1.226562 -1.714844 0.851562 -1.339844 0.851562 -0.808594 C 0.851562 -0.277344 1.226562 0.113281 1.785156 0.113281 Z M 1.785156 0.113281 "/></g></g></g><g clip-path="url(#b3c6254ad8)"><g clip-path="url(#340f284340)"><g clip-path="url(#a454c09f78)"><g clip-path="url(#f6f07fbbc7)"><g clip-path="url(#f07bec03b1)"><path fill="#2878eb" d="M 311.230469 25.660156 L 287.257812 61.886719 C 286.960938 62.339844 286.292969 62.316406 286.03125 61.847656 L 266.570312 27.441406 C 266.304688 26.972656 266.628906 26.386719 267.167969 26.363281 L 310.601562 24.539062 C 311.191406 24.515625 311.558594 25.167969 311.230469 25.660156 " fill-opacity="1" fill-rule="nonzero"/></g></g></g></g></g><g clip-path="url(#b7139a0629)"><g clip-path="url(#dca0776636)"><g clip-path="url(#82b695d563)"><g clip-path="url(#7ff1c440a0)"><g clip-path="url(#e5b0fdc14d)"><path fill="#2878eb" d="M 21.519531 76.230469 C 20.460938 75.8125 19.542969 75.007812 19.003906 73.898438 C 17.851562 71.542969 18.824219 68.695312 21.183594 67.539062 L 148.9375 4.957031 C 151.253906 3.824219 154.050781 4.746094 155.238281 7.035156 L 195.296875 84.164062 L 280.660156 36.535156 C 282.953125 35.253906 285.84375 36.074219 287.121094 38.367188 C 288.398438 40.660156 287.578125 43.554688 285.285156 44.835938 L 195.648438 94.847656 C 194.527344 95.472656 193.199219 95.621094 191.96875 95.25 C 190.742188 94.878906 189.710938 94.03125 189.121094 92.890625 L 148.945312 15.535156 L 25.359375 76.078125 C 24.105469 76.691406 22.71875 76.707031 21.519531 76.230469 " fill-opacity="1" fill-rule="nonzero"/></g></g></g></g></g></svg>