<svg xmlns="http://www.w3.org/2000/svg" xmlns:xlink="http://www.w3.org/1999/xlink" width="500" zoomAndPan="magnify" viewBox="0 0 375 225" height="300" preserveAspectRatio="xMidYMid meet" version="1.0"><defs><g/><clipPath id="6d33929ec0"><path d="M 188.605469 153 L 216.125 153 L 216.125 164.121094 L 188.605469 164.121094 Z M 188.605469 153 " clip-rule="nonzero"/></clipPath><clipPath id="cb71ca5a8c"><path d="M 188.605469 143 L 216.125 143 L 216.125 154 L 188.605469 154 Z M 188.605469 143 " clip-rule="nonzero"/></clipPath><clipPath id="18f1412d0e"><path d="M 188.605469 132 L 216.125 132 L 216.125 144 L 188.605469 144 Z M 188.605469 132 " clip-rule="nonzero"/></clipPath><clipPath id="d91dd13305"><path d="M 188.605469 105.621094 L 216.125 105.621094 L 216.125 123 L 188.605469 123 Z M 188.605469 105.621094 " clip-rule="nonzero"/></clipPath><clipPath id="135729b8f7"><path d="M 188.605469 122 L 216.125 122 L 216.125 133 L 188.605469 133 Z M 188.605469 122 " clip-rule="nonzero"/></clipPath><clipPath id="49737d99a1"><path d="M 17.21875 185.859375 L 90.71875 185.859375 L 90.71875 197.859375 L 17.21875 197.859375 Z M 17.21875 185.859375 " clip-rule="nonzero"/></clipPath><clipPath id="43e827f9c5"><path d="M 17.132812 77.605469 L 31.382812 77.605469 L 31.382812 183.355469 L 17.132812 183.355469 Z M 17.132812 77.605469 " clip-rule="nonzero"/></clipPath><clipPath id="5facfddb30"><path d="M 266 24 L 312 24 L 312 63 L 266 63 Z M 266 24 " clip-rule="nonzero"/></clipPath><clipPath id="298b4dfc2d"><path d="M 73.855469 -69.199219 L 311.667969 24.890625 L 254.828125 168.554688 L 17.015625 74.464844 Z M 73.855469 -69.199219 " clip-rule="nonzero"/></clipPath><clipPath id="3daadcf3b5"><path d="M 73.855469 -69.199219 L 311.667969 24.890625 L 254.828125 168.554688 L 17.015625 74.464844 Z M 73.855469 -69.199219 " clip-rule="nonzero"/></clipPath><clipPath id="99453956bb"><path d="M 272.984375 9.585938 L 311.632812 24.878906 L 295.375 65.964844 L 256.726562 50.675781 Z M 272.984375 9.585938 " clip-rule="nonzero"/></clipPath><clipPath id="39f6908ed5"><path d="M 272.984375 9.585938 L 311.570312 24.855469 L 295.3125 65.941406 L 256.726562 50.675781 Z M 272.984375 9.585938 " clip-rule="nonzero"/></clipPath><clipPath id="ac440e9857"><path d="M 18 4 L 288 4 L 288 96 L 18 96 Z M 18 4 " clip-rule="nonzero"/></clipPath><clipPath id="8e2f39f8e8"><path d="M 73.855469 -69.199219 L 311.667969 24.890625 L 254.828125 168.554688 L 17.015625 74.464844 Z M 73.855469 -69.199219 " clip-rule="nonzero"/></clipPath><clipPath id="e515c7ca48"><path d="M 73.855469 -69.199219 L 311.667969 24.890625 L 254.828125 168.554688 L 17.015625 74.464844 Z M 73.855469 -69.199219 " clip-rule="nonzero"/></clipPath><clipPath id="675586b3b4"><path d="M 66.480469 -50.316406 L 289.679688 37.996094 L 240.144531 163.195312 L 16.945312 74.882812 Z M 66.480469 -50.316406 " clip-rule="nonzero"/></clipPath><clipPath id="4b248978da"><path d="M 66.480469 -50.316406 L 289.679688 37.996094 L 240.304688 162.792969 L 17.105469 74.484375 Z M 66.480469 -50.316406 " clip-rule="nonzero"/></clipPath></defs><g fill="#2878eb" fill-opacity="1"><g transform="translate(35.389508, 162.182635)"><g><path d="M 3 -20.875 L 3 -33.1875 L 29.4375 -33.1875 L 29.4375 -20.875 Z M 3 -20.875 "/></g></g></g><g fill="#143c75" fill-opacity="1"><g transform="translate(67.420976, 162.182635)"><g><path d="M 19.15625 -28.109375 L 1.421875 -55.046875 L 18.46875 -55.046875 L 29.140625 -37.515625 L 39.921875 -55.046875 L 56.96875 -55.046875 L 39.046875 -28.109375 L 57.796875 0 L 40.71875 0 L 29.140625 -18.859375 L 17.53125 0 L 0.5 0 Z M 19.15625 -28.109375 "/></g></g></g><g fill="#143c75" fill-opacity="1"><g transform="translate(125.311008, 162.182635)"><g><path d="M 30.234375 0.984375 C 13.097656 0.984375 4.53125 -8.414062 4.53125 -27.21875 C 4.53125 -36.570312 6.859375 -43.71875 11.515625 -48.65625 C 16.179688 -53.601562 22.863281 -56.078125 31.5625 -56.078125 C 37.925781 -56.078125 43.632812 -54.828125 48.6875 -52.328125 L 44.265625 -40.71875 C 41.898438 -41.664062 39.695312 -42.441406 37.65625 -43.046875 C 35.625 -43.660156 33.59375 -43.96875 31.5625 -43.96875 C 23.75 -43.96875 19.84375 -38.421875 19.84375 -27.328125 C 19.84375 -16.554688 23.75 -11.171875 31.5625 -11.171875 C 34.445312 -11.171875 37.117188 -11.554688 39.578125 -12.328125 C 42.046875 -13.097656 44.507812 -14.304688 46.96875 -15.953125 L 46.96875 -3.109375 C 44.539062 -1.554688 42.085938 -0.488281 39.609375 0.09375 C 37.128906 0.6875 34.003906 0.984375 30.234375 0.984375 Z M 30.234375 0.984375 "/></g></g></g><g fill="#143c75" fill-opacity="1"><g transform="translate(176.749636, 162.182635)"><g/></g></g><g fill="#143c75" fill-opacity="1"><g transform="translate(202.538917, 162.182635)"><g/></g></g><g fill="#143c75" fill-opacity="1"><g transform="translate(228.327661, 162.182635)"><g><path d="M 46.28125 -16.34375 C 46.28125 -10.695312 44.316406 -6.394531 40.390625 -3.4375 C 36.472656 -0.488281 30.609375 0.984375 22.796875 0.984375 C 18.785156 0.984375 15.367188 0.710938 12.546875 0.171875 C 9.722656 -0.367188 7.082031 -1.164062 4.625 -2.21875 L 4.625 -14.625 C 7.414062 -13.3125 10.554688 -12.210938 14.046875 -11.328125 C 17.546875 -10.441406 20.625 -10 23.28125 -10 C 28.726562 -10 31.453125 -11.570312 31.453125 -14.71875 C 31.453125 -15.90625 31.09375 -16.863281 30.375 -17.59375 C 29.65625 -18.332031 28.40625 -19.171875 26.625 -20.109375 C 24.851562 -21.046875 22.492188 -22.140625 19.546875 -23.390625 C 15.304688 -25.160156 12.191406 -26.800781 10.203125 -28.3125 C 8.222656 -29.820312 6.78125 -31.550781 5.875 -33.5 C 4.976562 -35.457031 4.53125 -37.863281 4.53125 -40.71875 C 4.53125 -45.601562 6.425781 -49.382812 10.21875 -52.0625 C 14.007812 -54.738281 19.382812 -56.078125 26.34375 -56.078125 C 32.96875 -56.078125 39.414062 -54.632812 45.6875 -51.75 L 41.15625 -40.90625 C 38.394531 -42.09375 35.816406 -43.0625 33.421875 -43.8125 C 31.023438 -44.570312 28.582031 -44.953125 26.09375 -44.953125 C 21.664062 -44.953125 19.453125 -43.753906 19.453125 -41.359375 C 19.453125 -40.015625 20.164062 -38.847656 21.59375 -37.859375 C 23.019531 -36.867188 26.144531 -35.410156 30.96875 -33.484375 C 35.269531 -31.742188 38.421875 -30.117188 40.421875 -28.609375 C 42.421875 -27.097656 43.894531 -25.359375 44.84375 -23.390625 C 45.800781 -21.421875 46.28125 -19.070312 46.28125 -16.34375 Z M 46.28125 -16.34375 "/></g></g></g><g fill="#143c75" fill-opacity="1"><g transform="translate(278.044802, 162.182635)"><g><path d="M 30.671875 -45.390625 C 27.484375 -45.390625 24.988281 -44.378906 23.1875 -42.359375 C 21.382812 -40.347656 20.351562 -37.488281 20.09375 -33.78125 L 41.15625 -33.78125 C 41.09375 -37.488281 40.125 -40.347656 38.25 -42.359375 C 36.382812 -44.378906 33.859375 -45.390625 30.671875 -45.390625 Z M 32.78125 0.984375 C 23.925781 0.984375 17.003906 -1.457031 12.015625 -6.34375 C 7.023438 -11.238281 4.53125 -18.164062 4.53125 -27.125 C 4.53125 -36.351562 6.832031 -43.484375 11.4375 -48.515625 C 16.050781 -53.554688 22.429688 -56.078125 30.578125 -56.078125 C 38.347656 -56.078125 44.398438 -53.859375 48.734375 -49.421875 C 53.066406 -44.992188 55.234375 -38.875 55.234375 -31.0625 L 55.234375 -23.78125 L 19.75 -23.78125 C 19.90625 -19.507812 21.164062 -16.175781 23.53125 -13.78125 C 25.894531 -11.382812 29.210938 -10.1875 33.484375 -10.1875 C 36.796875 -10.1875 39.925781 -10.53125 42.875 -11.21875 C 45.832031 -11.914062 48.921875 -13.019531 52.140625 -14.53125 L 52.140625 -2.90625 C 49.515625 -1.59375 46.707031 -0.617188 43.71875 0.015625 C 40.726562 0.660156 37.082031 0.984375 32.78125 0.984375 Z M 32.78125 0.984375 "/></g></g></g><g clip-path="url(#6d33929ec0)"><path fill="#2878eb" d="M 202.542969 157.855469 C 208.171875 157.855469 212.941406 156.269531 216.125 153.652344 C 216.125 154.328125 216.125 155.027344 216.125 155.765625 C 216.125 160.527344 210.285156 164.121094 202.542969 164.121094 C 194.800781 164.121094 188.960938 160.527344 188.960938 155.765625 C 188.960938 155.070312 188.960938 154.359375 188.960938 153.652344 C 192.140625 156.269531 196.914062 157.855469 202.542969 157.855469 Z M 202.542969 157.855469 " fill-opacity="1" fill-rule="nonzero"/></g><g clip-path="url(#cb71ca5a8c)"><path fill="#2878eb" d="M 202.542969 147.410156 C 208.171875 147.410156 212.941406 145.824219 216.125 143.207031 C 216.125 143.882812 216.125 144.578125 216.125 145.320312 C 216.125 150.082031 210.285156 153.675781 202.542969 153.675781 C 194.800781 153.675781 188.960938 150.082031 188.960938 145.320312 C 188.960938 144.625 188.960938 143.910156 188.960938 143.207031 C 192.140625 145.824219 196.914062 147.410156 202.542969 147.410156 Z M 202.542969 147.410156 " fill-opacity="1" fill-rule="nonzero"/></g><g clip-path="url(#18f1412d0e)"><path fill="#2878eb" d="M 202.542969 136.960938 C 208.171875 136.960938 212.941406 135.375 216.125 132.761719 C 216.125 133.433594 216.125 134.132812 216.125 134.871094 C 216.125 139.636719 210.285156 143.230469 202.542969 143.230469 C 194.800781 143.230469 188.960938 139.636719 188.960938 134.871094 C 188.960938 134.175781 188.960938 133.464844 188.960938 132.761719 C 192.140625 135.375 196.914062 136.960938 202.542969 136.960938 Z M 202.542969 136.960938 " fill-opacity="1" fill-rule="nonzero"/></g><g clip-path="url(#d91dd13305)"><path fill="#2878eb" d="M 188.960938 113.980469 C 188.960938 109.214844 194.800781 105.621094 202.542969 105.621094 C 210.285156 105.621094 216.125 109.214844 216.125 113.980469 C 216.125 118.742188 210.285156 122.335938 202.542969 122.335938 C 194.800781 122.335938 188.960938 118.742188 188.960938 113.980469 Z M 188.960938 113.980469 " fill-opacity="1" fill-rule="nonzero"/></g><g clip-path="url(#135729b8f7)"><path fill="#2878eb" d="M 202.542969 126.515625 C 208.171875 126.515625 212.941406 124.929688 216.125 122.3125 C 216.125 122.988281 216.125 123.6875 216.125 124.425781 C 216.125 129.191406 210.285156 132.785156 202.542969 132.785156 C 194.800781 132.785156 188.960938 129.191406 188.960938 124.425781 C 188.960938 123.730469 188.960938 123.019531 188.960938 122.3125 C 192.140625 124.929688 196.914062 126.515625 202.542969 126.515625 Z M 202.542969 126.515625 " fill-opacity="1" fill-rule="nonzero"/></g><g clip-path="url(#49737d99a1)"><path fill="#2878eb" d="M 90.71875 185.859375 L 90.71875 197.859375 L 17.21875 197.859375 L 17.21875 185.859375 L 90.71875 185.859375 " fill-opacity="1" fill-rule="nonzero"/></g><g clip-path="url(#43e827f9c5)"><path fill="#2878eb" d="M 31.382812 183.351562 L 17.132812 183.351562 L 17.132812 77.609375 L 31.382812 77.609375 L 31.382812 183.351562 " fill-opacity="1" fill-rule="nonzero"/></g><g fill="#143c75" fill-opacity="1"><g transform="translate(97.438194, 197.513351)"><g><path d="M 6.558594 0.222656 C 10.253906 0.222656 12.636719 -2.511719 12.382812 -6.351562 L 6.0625 -6.351562 L 6.0625 -4.382812 L 9.695312 -4.382812 C 9.375 -3.023438 8.222656 -2.113281 6.589844 -2.113281 C 4.542969 -2.113281 3.230469 -3.582031 3.230469 -5.597656 C 3.230469 -7.648438 4.589844 -9.085938 6.558594 -9.085938 C 7.808594 -9.085938 8.847656 -8.511719 9.390625 -7.535156 L 12.125 -7.535156 C 11.453125 -9.886719 9.230469 -11.421875 6.511719 -11.421875 C 3.101562 -11.421875 0.6875 -9.007812 0.6875 -5.597656 C 0.6875 -2.175781 3.121094 0.222656 6.558594 0.222656 Z M 6.558594 0.222656 "/></g></g></g><g fill="#143c75" fill-opacity="1"><g transform="translate(111.72306, 197.513351)"><g><path d="M 6.65625 0.222656 C 10.160156 0.222656 12.636719 -2.175781 12.636719 -5.597656 C 12.636719 -9.023438 10.160156 -11.421875 6.65625 -11.421875 C 3.152344 -11.421875 0.6875 -9.023438 0.6875 -5.597656 C 0.6875 -2.175781 3.152344 0.222656 6.65625 0.222656 Z M 3.28125 -5.597656 C 3.28125 -7.613281 4.671875 -9.007812 6.65625 -9.007812 C 8.65625 -9.007812 10.03125 -7.613281 10.03125 -5.597656 C 10.03125 -3.582031 8.65625 -2.191406 6.65625 -2.191406 C 4.671875 -2.191406 3.28125 -3.582031 3.28125 -5.597656 Z M 3.28125 -5.597656 "/></g></g></g><g fill="#143c75" fill-opacity="1"><g transform="translate(126.279859, 197.513351)"><g><path d="M 4.449219 0 L 6.941406 0 L 11.246094 -11.199219 L 8.527344 -11.199219 L 5.710938 -3.664062 L 4.367188 -7.214844 L 2.878906 -11.199219 L 0.144531 -11.199219 Z M 4.449219 0 "/></g></g></g><g fill="#143c75" fill-opacity="1"><g transform="translate(138.901121, 197.513351)"><g><path d="M 1.34375 0 L 8.878906 0 L 8.878906 -2.160156 L 3.871094 -2.160156 L 3.871094 -4.605469 L 8.269531 -4.605469 L 8.269531 -6.734375 L 3.871094 -6.734375 L 3.871094 -9.054688 L 8.703125 -9.054688 L 8.703125 -11.199219 L 1.34375 -11.199219 Z M 1.34375 0 "/></g></g></g><g fill="#143c75" fill-opacity="1"><g transform="translate(149.826789, 197.513351)"><g><path d="M 1.34375 0 L 3.886719 0 L 3.886719 -3.488281 L 5.566406 -3.488281 L 7.566406 0 L 10.511719 0 L 8.191406 -3.886719 C 9.535156 -4.480469 10.320312 -5.695312 10.320312 -7.34375 C 10.320312 -9.726562 8.6875 -11.199219 6.128906 -11.199219 L 1.34375 -11.199219 Z M 3.855469 -5.632812 L 3.855469 -9.023438 L 5.792969 -9.023438 C 7.039062 -9.023438 7.742188 -8.414062 7.742188 -7.328125 C 7.742188 -6.238281 7.039062 -5.632812 5.792969 -5.632812 Z M 3.855469 -5.632812 "/></g></g></g><g fill="#143c75" fill-opacity="1"><g transform="translate(162.320081, 197.513351)"><g><path d="M 1.34375 0 L 3.871094 0 L 3.871094 -6.863281 L 8.816406 0 L 10.972656 0 L 10.972656 -11.199219 L 8.445312 -11.199219 L 8.445312 -4.382812 L 3.503906 -11.199219 L 1.34375 -11.199219 Z M 1.34375 0 "/></g></g></g><g fill="#143c75" fill-opacity="1"><g transform="translate(175.869124, 197.513351)"><g><path d="M 1.34375 0 L 3.871094 0 L 3.871094 -6.75 L 6.589844 -2.765625 L 8.351562 -2.765625 L 11.070312 -6.734375 L 11.070312 0 L 13.597656 0 L 13.597656 -11.199219 L 11.453125 -11.199219 L 7.488281 -5.390625 L 3.503906 -11.199219 L 1.34375 -11.199219 Z M 1.34375 0 "/></g></g></g><g fill="#143c75" fill-opacity="1"><g transform="translate(192.041531, 197.513351)"><g><path d="M 1.34375 0 L 8.878906 0 L 8.878906 -2.160156 L 3.871094 -2.160156 L 3.871094 -4.605469 L 8.269531 -4.605469 L 8.269531 -6.734375 L 3.871094 -6.734375 L 3.871094 -9.054688 L 8.703125 -9.054688 L 8.703125 -11.199219 L 1.34375 -11.199219 Z M 1.34375 0 "/></g></g></g><g fill="#143c75" fill-opacity="1"><g transform="translate(202.967205, 197.513351)"><g><path d="M 1.34375 0 L 3.871094 0 L 3.871094 -6.863281 L 8.816406 0 L 10.972656 0 L 10.972656 -11.199219 L 8.445312 -11.199219 L 8.445312 -4.382812 L 3.503906 -11.199219 L 1.34375 -11.199219 Z M 1.34375 0 "/></g></g></g><g fill="#143c75" fill-opacity="1"><g transform="translate(216.516254, 197.513351)"><g><path d="M 4.03125 0 L 6.574219 0 L 6.574219 -8.816406 L 10.125 -8.816406 L 10.125 -11.199219 L 0.480469 -11.199219 L 0.480469 -8.816406 L 4.03125 -8.816406 Z M 4.03125 0 "/></g></g></g><g fill="#143c75" fill-opacity="1"><g transform="translate(228.353713, 197.513351)"><g/></g></g><g fill="#143c75" fill-opacity="1"><g transform="translate(233.344813, 197.513351)"><g><path d="M 1.34375 0 L 8.878906 0 L 8.878906 -2.160156 L 3.871094 -2.160156 L 3.871094 -4.605469 L 8.269531 -4.605469 L 8.269531 -6.734375 L 3.871094 -6.734375 L 3.871094 -9.054688 L 8.703125 -9.054688 L 8.703125 -11.199219 L 1.34375 -11.199219 Z M 1.34375 0 "/></g></g></g><g fill="#143c75" fill-opacity="1"><g transform="translate(244.270487, 197.513351)"><g><path d="M 1.34375 0 L 3.871094 0 L 3.871094 -6.75 L 6.589844 -2.765625 L 8.351562 -2.765625 L 11.070312 -6.734375 L 11.070312 0 L 13.597656 0 L 13.597656 -11.199219 L 11.453125 -11.199219 L 7.488281 -5.390625 L 3.503906 -11.199219 L 1.34375 -11.199219 Z M 1.34375 0 "/></g></g></g><g fill="#143c75" fill-opacity="1"><g transform="translate(260.442899, 197.513351)"><g><path d="M 1.34375 0 L 3.886719 0 L 3.886719 -3.121094 L 5.726562 -3.121094 C 8.429688 -3.121094 10.175781 -4.703125 10.175781 -7.152344 C 10.175781 -9.613281 8.429688 -11.199219 5.726562 -11.199219 L 1.34375 -11.199219 Z M 3.871094 -5.3125 L 3.871094 -8.972656 L 5.519531 -8.972656 C 6.847656 -8.972656 7.582031 -8.300781 7.582031 -7.136719 C 7.582031 -5.96875 6.847656 -5.3125 5.519531 -5.3125 Z M 3.871094 -5.3125 "/></g></g></g><g fill="#143c75" fill-opacity="1"><g transform="translate(272.312344, 197.513351)"><g><path d="M 1.34375 0 L 8.78125 0 L 8.78125 -2.382812 L 3.886719 -2.382812 L 3.886719 -11.199219 L 1.34375 -11.199219 Z M 1.34375 0 "/></g></g></g><g fill="#143c75" fill-opacity="1"><g transform="translate(282.758133, 197.513351)"><g><path d="M 6.65625 0.222656 C 10.160156 0.222656 12.636719 -2.175781 12.636719 -5.597656 C 12.636719 -9.023438 10.160156 -11.421875 6.65625 -11.421875 C 3.152344 -11.421875 0.6875 -9.023438 0.6875 -5.597656 C 0.6875 -2.175781 3.152344 0.222656 6.65625 0.222656 Z M 3.28125 -5.597656 C 3.28125 -7.613281 4.671875 -9.007812 6.65625 -9.007812 C 8.65625 -9.007812 10.03125 -7.613281 10.03125 -5.597656 C 10.03125 -3.582031 8.65625 -2.191406 6.65625 -2.191406 C 4.671875 -2.191406 3.28125 -3.582031 3.28125 -5.597656 Z M 3.28125 -5.597656 "/></g></g></g><g fill="#143c75" fill-opacity="1"><g transform="translate(297.314926, 197.513351)"><g><path d="M 4.269531 0 L 6.816406 0 L 6.816406 -3.953125 L 10.925781 -11.199219 L 8.03125 -11.199219 L 6.65625 -8.605469 L 5.550781 -6.574219 L 4.429688 -8.605469 L 3.039062 -11.199219 L 0.144531 -11.199219 L 4.269531 -3.917969 Z M 4.269531 0 "/></g></g></g><g fill="#143c75" fill-opacity="1"><g transform="translate(309.616271, 197.513351)"><g><path d="M 1.34375 0 L 8.878906 0 L 8.878906 -2.160156 L 3.871094 -2.160156 L 3.871094 -4.605469 L 8.269531 -4.605469 L 8.269531 -6.734375 L 3.871094 -6.734375 L 3.871094 -9.054688 L 8.703125 -9.054688 L 8.703125 -11.199219 L 1.34375 -11.199219 Z M 1.34375 0 "/></g></g></g><g fill="#143c75" fill-opacity="1"><g transform="translate(320.541945, 197.513351)"><g><path d="M 1.34375 0 L 8.878906 0 L 8.878906 -2.160156 L 3.871094 -2.160156 L 3.871094 -4.605469 L 8.269531 -4.605469 L 8.269531 -6.734375 L 3.871094 -6.734375 L 3.871094 -9.054688 L 8.703125 -9.054688 L 8.703125 -11.199219 L 1.34375 -11.199219 Z M 1.34375 0 "/></g></g></g><g fill="#143c75" fill-opacity="1"><g transform="translate(331.467619, 197.513351)"><g><path d="M 5.246094 0.222656 C 7.902344 0.222656 9.535156 -1.039062 9.535156 -3.152344 C 9.535156 -4.925781 8.367188 -5.984375 5.582031 -6.640625 C 3.871094 -7.039062 3.28125 -7.472656 3.28125 -8.160156 C 3.28125 -8.894531 3.933594 -9.34375 5.007812 -9.34375 C 6.175781 -9.34375 6.878906 -8.734375 6.878906 -7.726562 L 9.328125 -7.726562 C 9.328125 -9.984375 7.628906 -11.421875 4.976562 -11.421875 C 2.398438 -11.421875 0.800781 -10.160156 0.800781 -8.109375 C 0.800781 -6.285156 2.03125 -5.199219 4.65625 -4.640625 C 6.238281 -4.304688 6.957031 -3.839844 6.957031 -3.054688 C 6.957031 -2.304688 6.285156 -1.871094 5.230469 -1.871094 C 4 -1.871094 3.199219 -2.496094 3.199219 -3.566406 L 0.703125 -3.566406 C 0.703125 -1.246094 2.429688 0.222656 5.246094 0.222656 Z M 5.246094 0.222656 "/></g></g></g><g fill="#143c75" fill-opacity="1"><g transform="translate(33.636437, 215.312696)"><g><path d="M 6.480469 0.222656 C 9.421875 0.222656 11.710938 -1.566406 12.269531 -4.289062 L 9.648438 -4.289062 C 9.183594 -3.007812 8 -2.191406 6.527344 -2.191406 C 4.625 -2.191406 3.28125 -3.582031 3.28125 -5.597656 C 3.28125 -7.613281 4.640625 -9.007812 6.542969 -9.007812 C 7.964844 -9.007812 9.132812 -8.238281 9.566406 -7.007812 L 12.191406 -7.007812 C 11.550781 -9.695312 9.308594 -11.421875 6.464844 -11.421875 C 3.070312 -11.421875 0.6875 -9.023438 0.6875 -5.597656 C 0.6875 -2.175781 3.070312 0.222656 6.480469 0.222656 Z M 6.480469 0.222656 "/></g></g></g><g fill="#143c75" fill-opacity="1"><g transform="translate(46.545337, 215.312696)"><g><path d="M 6.65625 0.222656 C 10.160156 0.222656 12.636719 -2.175781 12.636719 -5.597656 C 12.636719 -9.023438 10.160156 -11.421875 6.65625 -11.421875 C 3.152344 -11.421875 0.6875 -9.023438 0.6875 -5.597656 C 0.6875 -2.175781 3.152344 0.222656 6.65625 0.222656 Z M 3.28125 -5.597656 C 3.28125 -7.613281 4.671875 -9.007812 6.65625 -9.007812 C 8.65625 -9.007812 10.03125 -7.613281 10.03125 -5.597656 C 10.03125 -3.582031 8.65625 -2.191406 6.65625 -2.191406 C 4.671875 -2.191406 3.28125 -3.582031 3.28125 -5.597656 Z M 3.28125 -5.597656 "/></g></g></g><g fill="#143c75" fill-opacity="1"><g transform="translate(59.870139, 215.312696)"><g><path d="M 1.054688 -3.121094 L 6.253906 -3.121094 L 6.253906 -4.941406 L 1.054688 -4.941406 Z M 1.054688 -3.121094 "/></g></g></g><g fill="#143c75" fill-opacity="1"><g transform="translate(67.196383, 215.312696)"><g><path d="M 6.65625 0.222656 C 10.160156 0.222656 12.636719 -2.175781 12.636719 -5.597656 C 12.636719 -9.023438 10.160156 -11.421875 6.65625 -11.421875 C 3.152344 -11.421875 0.6875 -9.023438 0.6875 -5.597656 C 0.6875 -2.175781 3.152344 0.222656 6.65625 0.222656 Z M 3.28125 -5.597656 C 3.28125 -7.613281 4.671875 -9.007812 6.65625 -9.007812 C 8.65625 -9.007812 10.03125 -7.613281 10.03125 -5.597656 C 10.03125 -3.582031 8.65625 -2.191406 6.65625 -2.191406 C 4.671875 -2.191406 3.28125 -3.582031 3.28125 -5.597656 Z M 3.28125 -5.597656 "/></g></g></g><g fill="#143c75" fill-opacity="1"><g transform="translate(80.521184, 215.312696)"><g><path d="M 1.34375 0 L 3.886719 0 L 3.886719 -3.121094 L 5.726562 -3.121094 C 8.429688 -3.121094 10.175781 -4.703125 10.175781 -7.152344 C 10.175781 -9.613281 8.429688 -11.199219 5.726562 -11.199219 L 1.34375 -11.199219 Z M 3.871094 -5.3125 L 3.871094 -8.972656 L 5.519531 -8.972656 C 6.847656 -8.972656 7.582031 -8.300781 7.582031 -7.136719 C 7.582031 -5.96875 6.847656 -5.3125 5.519531 -5.3125 Z M 3.871094 -5.3125 "/></g></g></g><g fill="#143c75" fill-opacity="1"><g transform="translate(91.158628, 215.312696)"><g><path d="M 1.34375 0 L 8.878906 0 L 8.878906 -2.160156 L 3.871094 -2.160156 L 3.871094 -4.605469 L 8.269531 -4.605469 L 8.269531 -6.734375 L 3.871094 -6.734375 L 3.871094 -9.054688 L 8.703125 -9.054688 L 8.703125 -11.199219 L 1.34375 -11.199219 Z M 1.34375 0 "/></g></g></g><g fill="#143c75" fill-opacity="1"><g transform="translate(100.852299, 215.312696)"><g><path d="M 1.34375 0 L 3.886719 0 L 3.886719 -3.488281 L 5.566406 -3.488281 L 7.566406 0 L 10.511719 0 L 8.191406 -3.886719 C 9.535156 -4.480469 10.320312 -5.695312 10.320312 -7.34375 C 10.320312 -9.726562 8.6875 -11.199219 6.128906 -11.199219 L 1.34375 -11.199219 Z M 3.855469 -5.632812 L 3.855469 -9.023438 L 5.792969 -9.023438 C 7.039062 -9.023438 7.742188 -8.414062 7.742188 -7.328125 C 7.742188 -6.238281 7.039062 -5.632812 5.792969 -5.632812 Z M 3.855469 -5.632812 "/></g></g></g><g fill="#143c75" fill-opacity="1"><g transform="translate(112.113594, 215.312696)"><g><path d="M 0.144531 0 L 2.863281 0 L 3.617188 -1.9375 L 8.0625 -1.9375 L 8.816406 0 L 11.535156 0 L 7.085938 -11.199219 L 4.589844 -11.199219 Z M 4.269531 -3.933594 L 5.839844 -8.03125 L 7.421875 -3.933594 Z M 4.269531 -3.933594 "/></g></g></g><g fill="#143c75" fill-opacity="1"><g transform="translate(123.79079, 215.312696)"><g><path d="M 4.03125 0 L 6.574219 0 L 6.574219 -8.816406 L 10.125 -8.816406 L 10.125 -11.199219 L 0.480469 -11.199219 L 0.480469 -8.816406 L 4.03125 -8.816406 Z M 4.03125 0 "/></g></g></g><g fill="#143c75" fill-opacity="1"><g transform="translate(134.396247, 215.312696)"><g><path d="M 1.34375 0 L 3.886719 0 L 3.886719 -11.199219 L 1.34375 -11.199219 Z M 1.34375 0 "/></g></g></g><g fill="#143c75" fill-opacity="1"><g transform="translate(139.626986, 215.312696)"><g><path d="M 4.449219 0 L 6.941406 0 L 11.246094 -11.199219 L 8.527344 -11.199219 L 5.710938 -3.664062 L 4.367188 -7.214844 L 2.878906 -11.199219 L 0.144531 -11.199219 Z M 4.449219 0 "/></g></g></g><g fill="#143c75" fill-opacity="1"><g transform="translate(151.016249, 215.312696)"><g><path d="M 1.34375 0 L 8.878906 0 L 8.878906 -2.160156 L 3.871094 -2.160156 L 3.871094 -4.605469 L 8.269531 -4.605469 L 8.269531 -6.734375 L 3.871094 -6.734375 L 3.871094 -9.054688 L 8.703125 -9.054688 L 8.703125 -11.199219 L 1.34375 -11.199219 Z M 1.34375 0 "/></g></g></g><g fill="#143c75" fill-opacity="1"><g transform="translate(160.709921, 215.312696)"><g/></g></g><g fill="#143c75" fill-opacity="1"><g transform="translate(164.469019, 215.312696)"><g><path d="M 6.480469 0.222656 C 9.421875 0.222656 11.710938 -1.566406 12.269531 -4.289062 L 9.648438 -4.289062 C 9.183594 -3.007812 8 -2.191406 6.527344 -2.191406 C 4.625 -2.191406 3.28125 -3.582031 3.28125 -5.597656 C 3.28125 -7.613281 4.640625 -9.007812 6.542969 -9.007812 C 7.964844 -9.007812 9.132812 -8.238281 9.566406 -7.007812 L 12.191406 -7.007812 C 11.550781 -9.695312 9.308594 -11.421875 6.464844 -11.421875 C 3.070312 -11.421875 0.6875 -9.023438 0.6875 -5.597656 C 0.6875 -2.175781 3.070312 0.222656 6.480469 0.222656 Z M 6.480469 0.222656 "/></g></g></g><g fill="#143c75" fill-opacity="1"><g transform="translate(177.377919, 215.312696)"><g><path d="M 1.34375 0 L 3.886719 0 L 3.886719 -3.488281 L 5.566406 -3.488281 L 7.566406 0 L 10.511719 0 L 8.191406 -3.886719 C 9.535156 -4.480469 10.320312 -5.695312 10.320312 -7.34375 C 10.320312 -9.726562 8.6875 -11.199219 6.128906 -11.199219 L 1.34375 -11.199219 Z M 3.855469 -5.632812 L 3.855469 -9.023438 L 5.792969 -9.023438 C 7.039062 -9.023438 7.742188 -8.414062 7.742188 -7.328125 C 7.742188 -6.238281 7.039062 -5.632812 5.792969 -5.632812 Z M 3.855469 -5.632812 "/></g></g></g><g fill="#143c75" fill-opacity="1"><g transform="translate(188.639214, 215.312696)"><g><path d="M 1.34375 0 L 8.878906 0 L 8.878906 -2.160156 L 3.871094 -2.160156 L 3.871094 -4.605469 L 8.269531 -4.605469 L 8.269531 -6.734375 L 3.871094 -6.734375 L 3.871094 -9.054688 L 8.703125 -9.054688 L 8.703125 -11.199219 L 1.34375 -11.199219 Z M 1.34375 0 "/></g></g></g><g fill="#143c75" fill-opacity="1"><g transform="translate(198.332886, 215.312696)"><g><path d="M 1.34375 0 L 5.773438 0 C 9.308594 0 11.679688 -2.253906 11.679688 -5.597656 C 11.679688 -8.925781 9.308594 -11.199219 5.773438 -11.199219 L 1.34375 -11.199219 Z M 3.886719 -2.335938 L 3.886719 -8.863281 L 5.695312 -8.863281 C 7.710938 -8.863281 9.070312 -7.566406 9.070312 -5.597656 C 9.070312 -3.632812 7.710938 -2.335938 5.726562 -2.335938 Z M 3.886719 -2.335938 "/></g></g></g><g fill="#143c75" fill-opacity="1"><g transform="translate(210.681919, 215.312696)"><g><path d="M 1.34375 0 L 3.886719 0 L 3.886719 -11.199219 L 1.34375 -11.199219 Z M 1.34375 0 "/></g></g></g><g fill="#143c75" fill-opacity="1"><g transform="translate(215.912658, 215.312696)"><g><path d="M 4.03125 0 L 6.574219 0 L 6.574219 -8.816406 L 10.125 -8.816406 L 10.125 -11.199219 L 0.480469 -11.199219 L 0.480469 -8.816406 L 4.03125 -8.816406 Z M 4.03125 0 "/></g></g></g><g fill="#143c75" fill-opacity="1"><g transform="translate(226.518126, 215.312696)"><g/></g></g><g fill="#143c75" fill-opacity="1"><g transform="translate(230.277236, 215.312696)"><g><path d="M 5.246094 0.222656 C 7.902344 0.222656 9.535156 -1.039062 9.535156 -3.152344 C 9.535156 -4.925781 8.367188 -5.984375 5.582031 -6.640625 C 3.871094 -7.039062 3.28125 -7.472656 3.28125 -8.160156 C 3.28125 -8.894531 3.933594 -9.34375 5.007812 -9.34375 C 6.175781 -9.34375 6.878906 -8.734375 6.878906 -7.726562 L 9.328125 -7.726562 C 9.328125 -9.984375 7.628906 -11.421875 4.976562 -11.421875 C 2.398438 -11.421875 0.800781 -10.160156 0.800781 -8.109375 C 0.800781 -6.285156 2.03125 -5.199219 4.65625 -4.640625 C 6.238281 -4.304688 6.957031 -3.839844 6.957031 -3.054688 C 6.957031 -2.304688 6.285156 -1.871094 5.230469 -1.871094 C 4 -1.871094 3.199219 -2.496094 3.199219 -3.566406 L 0.703125 -3.566406 C 0.703125 -1.246094 2.429688 0.222656 5.246094 0.222656 Z M 5.246094 0.222656 "/></g></g></g><g fill="#143c75" fill-opacity="1"><g transform="translate(240.530775, 215.312696)"><g><path d="M 6.65625 0.222656 C 10.160156 0.222656 12.636719 -2.175781 12.636719 -5.597656 C 12.636719 -9.023438 10.160156 -11.421875 6.65625 -11.421875 C 3.152344 -11.421875 0.6875 -9.023438 0.6875 -5.597656 C 0.6875 -2.175781 3.152344 0.222656 6.65625 0.222656 Z M 3.28125 -5.597656 C 3.28125 -7.613281 4.671875 -9.007812 6.65625 -9.007812 C 8.65625 -9.007812 10.03125 -7.613281 10.03125 -5.597656 C 10.03125 -3.582031 8.65625 -2.191406 6.65625 -2.191406 C 4.671875 -2.191406 3.28125 -3.582031 3.28125 -5.597656 Z M 3.28125 -5.597656 "/></g></g></g><g fill="#143c75" fill-opacity="1"><g transform="translate(253.855588, 215.312696)"><g><path d="M 6.480469 0.222656 C 9.421875 0.222656 11.710938 -1.566406 12.269531 -4.289062 L 9.648438 -4.289062 C 9.183594 -3.007812 8 -2.191406 6.527344 -2.191406 C 4.625 -2.191406 3.28125 -3.582031 3.28125 -5.597656 C 3.28125 -7.613281 4.640625 -9.007812 6.542969 -9.007812 C 7.964844 -9.007812 9.132812 -8.238281 9.566406 -7.007812 L 12.191406 -7.007812 C 11.550781 -9.695312 9.308594 -11.421875 6.464844 -11.421875 C 3.070312 -11.421875 0.6875 -9.023438 0.6875 -5.597656 C 0.6875 -2.175781 3.070312 0.222656 6.480469 0.222656 Z M 6.480469 0.222656 "/></g></g></g><g fill="#143c75" fill-opacity="1"><g transform="translate(266.764477, 215.312696)"><g><path d="M 1.34375 0 L 3.886719 0 L 3.886719 -11.199219 L 1.34375 -11.199219 Z M 1.34375 0 "/></g></g></g><g fill="#143c75" fill-opacity="1"><g transform="translate(271.995205, 215.312696)"><g><path d="M 1.34375 0 L 8.878906 0 L 8.878906 -2.160156 L 3.871094 -2.160156 L 3.871094 -4.605469 L 8.269531 -4.605469 L 8.269531 -6.734375 L 3.871094 -6.734375 L 3.871094 -9.054688 L 8.703125 -9.054688 L 8.703125 -11.199219 L 1.34375 -11.199219 Z M 1.34375 0 "/></g></g></g><g fill="#143c75" fill-opacity="1"><g transform="translate(281.688877, 215.312696)"><g><path d="M 4.03125 0 L 6.574219 0 L 6.574219 -8.816406 L 10.125 -8.816406 L 10.125 -11.199219 L 0.480469 -11.199219 L 0.480469 -8.816406 L 4.03125 -8.816406 Z M 4.03125 0 "/></g></g></g><g fill="#143c75" fill-opacity="1"><g transform="translate(292.294322, 215.312696)"><g><path d="M 4.269531 0 L 6.816406 0 L 6.816406 -3.953125 L 10.925781 -11.199219 L 8.03125 -11.199219 L 6.65625 -8.605469 L 5.550781 -6.574219 L 4.429688 -8.605469 L 3.039062 -11.199219 L 0.144531 -11.199219 L 4.269531 -3.917969 Z M 4.269531 0 "/></g></g></g><g fill="#143c75" fill-opacity="1"><g transform="translate(303.363666, 215.312696)"><g/></g></g><g fill="#143c75" fill-opacity="1"><g transform="translate(307.122752, 215.312696)"><g><path d="M 1.34375 0 L 8.78125 0 L 8.78125 -2.382812 L 3.886719 -2.382812 L 3.886719 -11.199219 L 1.34375 -11.199219 Z M 1.34375 0 "/></g></g></g><g fill="#143c75" fill-opacity="1"><g transform="translate(316.336527, 215.312696)"><g><path d="M 4.03125 0 L 6.574219 0 L 6.574219 -8.816406 L 10.125 -8.816406 L 10.125 -11.199219 L 0.480469 -11.199219 L 0.480469 -8.816406 L 4.03125 -8.816406 Z M 4.03125 0 "/></g></g></g><g fill="#143c75" fill-opacity="1"><g transform="translate(326.941996, 215.312696)"><g><path d="M 1.34375 0 L 5.773438 0 C 9.308594 0 11.679688 -2.253906 11.679688 -5.597656 C 11.679688 -8.925781 9.308594 -11.199219 5.773438 -11.199219 L 1.34375 -11.199219 Z M 3.886719 -2.335938 L 3.886719 -8.863281 L 5.695312 -8.863281 C 7.710938 -8.863281 9.070312 -7.566406 9.070312 -5.597656 C 9.070312 -3.632812 7.710938 -2.335938 5.726562 -2.335938 Z M 3.886719 -2.335938 "/></g></g></g><g fill="#143c75" fill-opacity="1"><g transform="translate(339.29104, 215.312696)"><g><path d="M 2.144531 0.175781 C 3.007812 0.175781 3.632812 -0.433594 3.632812 -1.265625 C 3.632812 -2.09375 3.007812 -2.71875 2.144531 -2.71875 C 1.265625 -2.71875 0.65625 -2.09375 0.65625 -1.265625 C 0.65625 -0.433594 1.265625 0.175781 2.144531 0.175781 Z M 2.144531 0.175781 "/></g></g></g><g clip-path="url(#5facfddb30)"><g clip-path="url(#298b4dfc2d)"><g clip-path="url(#3daadcf3b5)"><g clip-path="url(#99453956bb)"><g clip-path="url(#39f6908ed5)"><path fill="#2878eb" d="M 311.230469 25.660156 L 287.257812 61.886719 C 286.960938 62.339844 286.292969 62.316406 286.03125 61.847656 L 266.570312 27.441406 C 266.304688 26.972656 266.628906 26.386719 267.167969 26.363281 L 310.601562 24.539062 C 311.191406 24.515625 311.558594 25.167969 311.230469 25.660156 " fill-opacity="1" fill-rule="nonzero"/></g></g></g></g></g><g clip-path="url(#ac440e9857)"><g clip-path="url(#8e2f39f8e8)"><g clip-path="url(#e515c7ca48)"><g clip-path="url(#675586b3b4)"><g clip-path="url(#4b248978da)"><path fill="#2878eb" d="M 21.519531 76.230469 C 20.460938 75.8125 19.542969 75.007812 19.003906 73.898438 C 17.851562 71.542969 18.824219 68.695312 21.183594 67.539062 L 148.9375 4.957031 C 151.253906 3.824219 154.050781 4.746094 155.238281 7.035156 L 195.296875 84.164062 L 280.660156 36.535156 C 282.953125 35.253906 285.84375 36.074219 287.121094 38.367188 C 288.398438 40.660156 287.578125 43.554688 285.285156 44.835938 L 195.648438 94.847656 C 194.527344 95.472656 193.199219 95.621094 191.96875 95.25 C 190.742188 94.878906 189.710938 94.03125 189.121094 92.890625 L 148.945312 15.535156 L 25.359375 76.078125 C 24.105469 76.691406 22.71875 76.707031 21.519531 76.230469 " fill-opacity="1" fill-rule="nonzero"/></g></g></g></g></g></svg>